<svg version="1.1" viewBox="0.0 0.0 207.6272965879265 322.6036745406824" fill="none" stroke="none" stroke-linecap="square" stroke-miterlimit="10" xmlns:xlink="http://www.w3.org/1999/xlink" xmlns="http://www.w3.org/2000/svg"><clipPath id="p.0"><path d="m0 0l207.6273 0l0 322.60367l-207.6273 0l0 -322.60367z" clip-rule="nonzero"/></clipPath><g clip-path="url(#p.0)"><path fill="#000000" fill-opacity="0.0" d="m0 0l207.6273 0l0 322.60367l-207.6273 0z" fill-rule="evenodd"/><path fill="#000000" fill-opacity="0.0" d="m104.34908 31.538057l0 64.157486" fill-rule="evenodd"/><path stroke="#4285f4" stroke-width="2.0" stroke-miterlimit="400.0" stroke-linecap="butt" d="m104.34908 31.538057l0 52.157486" fill-rule="evenodd"/><path fill="#4285f4" stroke="#4285f4" stroke-width="2.0" stroke-linecap="butt" d="m101.045616 83.69554l3.3034668 9.076195l3.3034668 -9.076195z" fill-rule="evenodd"/><path fill="#ffffff" d="m8.629925 13.788175l0 0c0 -2.1414366 1.7359772 -3.8774137 3.8774137 -3.8774137l184.8436 0c1.0283508 0 2.0145874 0.40851212 2.741745 1.1356688c0.7271576 0.7271557 1.1356659 1.7133913 1.1356659 2.741745l0 36.27667c0 2.1414375 -1.7359772 3.8774147 -3.877411 3.8774147l-184.8436 0c-2.1414366 0 -3.8774137 -1.7359772 -3.8774137 -3.8774147z" fill-rule="evenodd"/><path stroke="#4285f4" stroke-width="4.0" stroke-miterlimit="400.0" stroke-linecap="butt" d="m8.629925 13.788175l0 0c0 -2.1414366 1.7359772 -3.8774137 3.8774137 -3.8774137l184.8436 0c1.0283508 0 2.0145874 0.40851212 2.741745 1.1356688c0.7271576 0.7271557 1.1356659 1.7133913 1.1356659 2.741745l0 36.27667c0 2.1414375 -1.7359772 3.8774147 -3.877411 3.8774147l-184.8436 0c-2.1414366 0 -3.8774137 -1.7359772 -3.8774137 -3.8774147z" fill-rule="evenodd"/><path fill="#000000" d="m76.00195 26.333385l2.359375 0l3.359375 8.71875l0.09375 0l3.359375 -8.71875l2.359375 0l0 11.453125l-1.71875 0l0 -6.484375l0.09375 -2.03125l-0.09375 0l-3.34375 8.515625l-1.390625 0l-3.34375 -8.515625l-0.109375 0l0.109375 2.03125l0 6.484375l-1.734375 0l0 -11.453125zm16.15364 11.703125q-0.875 0 -1.5625 -0.34375q-0.6875 -0.34375 -1.078125 -0.96875q-0.375 -0.625 -0.375 -1.421875q0 -0.84375 0.4375 -1.453125q0.453125 -0.625 1.21875 -0.953125q0.765625 -0.328125 1.71875 -0.328125q0.71875 0 1.296875 0.140625q0.59375 0.140625 0.9375 0.3125l0 -0.4375q0 -0.78125 -0.578125 -1.265625q-0.5625 -0.484375 -1.484375 -0.484375q-0.625 0 -1.1875 0.28125q-0.546875 0.265625 -0.890625 0.75l-1.1875 -0.90625q0.53125 -0.75 1.40625 -1.171875q0.875 -0.421875 1.90625 -0.421875q1.765625 0 2.734375 0.875q0.96875 0.875 0.96875 2.4375l0 5.109375l-1.6875 0l0 -1.015625l-0.09375 0q-0.34375 0.546875 -1.0 0.90625q-0.65625 0.359375 -1.5 0.359375zm0.3125 -1.40625q0.640625 0 1.15625 -0.3125q0.53125 -0.3125 0.828125 -0.828125q0.296875 -0.53125 0.296875 -1.140625q-0.375 -0.21875 -0.875 -0.34375q-0.5 -0.140625 -1.046875 -0.140625q-1.0 0 -1.484375 0.40625q-0.46875 0.390625 -0.46875 1.046875q0 0.578125 0.4375 0.953125q0.4375 0.359375 1.15625 0.359375zm9.060394 1.28125q-0.546875 0 -1.03125 -0.15625q-0.46875 -0.171875 -0.765625 -0.484375q-0.6875 -0.65625 -0.6875 -1.859375l0 -4.28125l-1.421875 0l0 -1.5l1.421875 0l0 -2.3125l1.71875 0l0 2.3125l2.0 0l0 1.5l-2.0 0l0 3.921875q0 0.671875 0.265625 0.9375q0.265625 0.3125 0.828125 0.3125q0.28125 0 0.484375 -0.0625q0.21875 -0.078125 0.46875 -0.25l0 1.6875q-0.53125 0.234375 -1.28125 0.234375zm6.327011 0.125q-1.1875 0 -2.140625 -0.546875q-0.953125 -0.5625 -1.484375 -1.546875q-0.53125 -0.984375 -0.53125 -2.21875q0 -1.171875 0.515625 -2.171875q0.515625 -1.0 1.4375 -1.59375q0.9375 -0.59375 2.109375 -0.59375q1.234375 0 2.125 0.546875q0.890625 0.53125 1.359375 1.484375q0.484375 0.9375 0.484375 2.140625q0 0.3125 -0.03125 0.53125l-6.3125 0q0.125 1.171875 0.84375 1.8125q0.71875 0.625 1.671875 0.625q0.78125 0 1.34375 -0.359375q0.5625 -0.359375 0.90625 -0.953125l1.421875 0.6875q-0.5625 1.015625 -1.5 1.59375q-0.921875 0.5625 -2.21875 0.5625zm2.15625 -5.265625q-0.03125 -0.4375 -0.28125 -0.890625q-0.25 -0.453125 -0.75 -0.734375q-0.484375 -0.296875 -1.203125 -0.296875q-0.859375 0 -1.46875 0.53125q-0.59375 0.515625 -0.8125 1.390625l4.515625 0zm3.3250122 -3.140625l1.625 0l0 1.203125l0.09375 0q0.28125 -0.625 0.9375 -1.03125q0.671875 -0.421875 1.4375 -0.421875q0.546875 0 0.984375 0.171875l0 1.78125q-0.65625 -0.28125 -1.265625 -0.28125q-0.90625 0 -1.5 0.703125q-0.59375 0.703125 -0.59375 1.71875l0 4.3125l-1.71875 0l0 -8.15625zm7.4003906 -1.203125q-0.484375 0 -0.828125 -0.34375q-0.34375 -0.34375 -0.34375 -0.828125q0 -0.484375 0.34375 -0.8125q0.34375 -0.34375 0.828125 -0.34375q0.484375 0 0.828125 0.34375q0.34375 0.328125 0.34375 0.8125q0 0.484375 -0.34375 0.828125q-0.34375 0.34375 -0.828125 0.34375zm-0.859375 1.203125l1.71875 0l0 8.15625l-1.71875 0l0 -8.15625zm6.3418884 8.40625q-0.875 0 -1.5625 -0.34375q-0.6875 -0.34375 -1.078125 -0.96875q-0.375 -0.625 -0.375 -1.421875q0 -0.84375 0.4375 -1.453125q0.453125 -0.625 1.21875 -0.953125q0.765625 -0.328125 1.71875 -0.328125q0.71875 0 1.296875 0.140625q0.59375 0.140625 0.9375 0.3125l0 -0.4375q0 -0.78125 -0.578125 -1.265625q-0.5625 -0.484375 -1.484375 -0.484375q-0.625 0 -1.1875 0.28125q-0.546875 0.265625 -0.890625 0.75l-1.1875 -0.90625q0.53125 -0.75 1.40625 -1.171875q0.875 -0.421875 1.90625 -0.421875q1.765625 0 2.734375 0.875q0.96875 0.875 0.96875 2.4375l0 5.109375l-1.6875 0l0 -1.015625l-0.09375 0q-0.34375 0.546875 -1.0 0.90625q-0.65625 0.359375 -1.5 0.359375zm0.3125 -1.40625q0.640625 0 1.15625 -0.3125q0.53125 -0.3125 0.828125 -0.828125q0.296875 -0.53125 0.296875 -1.140625q-0.375 -0.21875 -0.875 -0.34375q-0.5 -0.140625 -1.046875 -0.140625q-1.0 0 -1.484375 0.40625q-0.46875 0.390625 -0.46875 1.046875q0 0.578125 0.4375 0.953125q0.4375 0.359375 1.15625 0.359375zm5.876648 -10.296875l1.71875 0l0 11.453125l-1.71875 0l0 -11.453125z" fill-rule="nonzero"/><path fill="#000000" fill-opacity="0.0" d="m104.34908 117.32284l0 64.15748" fill-rule="evenodd"/><path stroke="#4285f4" stroke-width="2.0" stroke-miterlimit="400.0" stroke-linecap="butt" d="m104.34908 117.32284l0 52.15748" fill-rule="evenodd"/><path fill="#4285f4" stroke="#4285f4" stroke-width="2.0" stroke-linecap="butt" d="m101.045616 169.48032l3.3034668 9.076187l3.3034668 -9.076187z" fill-rule="evenodd"/><path fill="#ffffff" d="m8.629925 99.57295l0 0c0 -2.1414337 1.7359772 -3.877411 3.8774137 -3.877411l184.8436 0c1.0283508 0 2.0145874 0.4085083 2.741745 1.1356659c0.7271576 0.7271576 1.1356659 1.7133865 1.1356659 2.741745l0 36.276672c0 2.1414337 -1.7359772 3.877411 -3.877411 3.877411l-184.8436 0c-2.1414366 0 -3.8774137 -1.7359772 -3.8774137 -3.877411z" fill-rule="evenodd"/><path stroke="#4285f4" stroke-width="4.0" stroke-miterlimit="400.0" stroke-linecap="butt" d="m8.629925 99.57295l0 0c0 -2.1414337 1.7359772 -3.877411 3.8774137 -3.877411l184.8436 0c1.0283508 0 2.0145874 0.4085083 2.741745 1.1356659c0.7271576 0.7271576 1.1356659 1.7133865 1.1356659 2.741745l0 36.276672c0 2.1414337 -1.7359772 3.877411 -3.877411 3.877411l-184.8436 0c-2.1414366 0 -3.8774137 -1.7359772 -3.8774137 -3.877411z" fill-rule="evenodd"/><path fill="#000000" d="m64.25793 112.118164l6.9375 0l0 1.65625l-5.171875 0l0 3.359375l4.671875 0l0 1.671875l-4.671875 0l0 4.765625l-1.765625 0l0 -11.453125zm11.898895 11.703125q-1.234375 0 -2.21875 -0.5625q-0.96875 -0.5625 -1.515625 -1.546875q-0.53125 -1.0 -0.53125 -2.21875q0 -1.21875 0.53125 -2.203125q0.546875 -1.0 1.515625 -1.5625q0.984375 -0.578125 2.21875 -0.578125q1.21875 0 2.1875 0.578125q0.984375 0.578125 1.53125 1.578125q0.546875 0.984375 0.546875 2.1875q0 1.21875 -0.546875 2.21875q-0.546875 0.984375 -1.515625 1.546875q-0.96875 0.5625 -2.203125 0.5625zm0 -1.578125q0.6875 0 1.265625 -0.328125q0.578125 -0.34375 0.921875 -0.96875q0.359375 -0.625 0.359375 -1.453125q0 -0.828125 -0.359375 -1.453125q-0.34375 -0.625 -0.921875 -0.953125q-0.578125 -0.34375 -1.265625 -0.34375q-0.6875 0 -1.28125 0.34375q-0.578125 0.328125 -0.9375 0.953125q-0.34375 0.625 -0.34375 1.453125q0 0.828125 0.34375 1.453125q0.359375 0.625 0.9375 0.96875q0.59375 0.328125 1.28125 0.328125zm8.725021 1.578125q-1.46875 0 -2.25 -0.875q-0.78125 -0.890625 -0.78125 -2.484375l0 -5.046875l1.734375 0l0 4.8125q0 0.984375 0.453125 1.5q0.46875 0.515625 1.265625 0.515625q0.640625 0 1.125 -0.328125q0.5 -0.34375 0.765625 -0.90625q0.265625 -0.5625 0.265625 -1.21875l0 -4.375l1.703125 0l0 8.15625l-1.609375 0l0 -1.109375l-0.09375 0q-0.359375 0.59375 -1.0625 0.984375q-0.703125 0.375 -1.515625 0.375zm6.326889 -8.40625l1.625 0l0 1.109375l0.09375 0q0.359375 -0.59375 1.0625 -0.984375q0.703125 -0.390625 1.515625 -0.390625q1.46875 0 2.234375 0.875q0.765625 0.875 0.765625 2.390625l0 5.15625l-1.703125 0l0 -4.921875q0 -0.96875 -0.484375 -1.4375q-0.484375 -0.46875 -1.3125 -0.46875q-0.609375 0 -1.078125 0.34375q-0.46875 0.328125 -0.734375 0.890625q-0.265625 0.546875 -0.265625 1.203125l0 4.390625l-1.71875 0l0 -8.15625zm12.764389 8.40625q-1.109375 0 -2.015625 -0.546875q-0.890625 -0.546875 -1.40625 -1.53125q-0.5 -1.0 -0.5 -2.25q0 -1.25 0.5 -2.234375q0.515625 -0.984375 1.40625 -1.546875q0.90625 -0.5625 2.015625 -0.5625q0.890625 0 1.578125 0.40625q0.6875 0.390625 1.046875 0.953125l0.09375 0l-0.09375 -1.125l0 -3.265625l1.703125 0l0 11.453125l-1.609375 0l0 -1.09375l-0.09375 0q-0.359375 0.5625 -1.046875 0.953125q-0.6875 0.390625 -1.578125 0.390625zm0.25 -1.578125q0.640625 0 1.203125 -0.34375q0.578125 -0.34375 0.921875 -0.96875q0.34375 -0.625 0.34375 -1.4375q0 -0.8125 -0.34375 -1.4375q-0.34375 -0.625 -0.921875 -0.96875q-0.5625 -0.34375 -1.203125 -0.34375q-0.640625 0 -1.21875 0.34375q-0.5625 0.34375 -0.90625 0.96875q-0.34375 0.625 -0.34375 1.4375q0 0.8125 0.34375 1.4375q0.34375 0.625 0.90625 0.96875q0.578125 0.34375 1.21875 0.34375zm8.588516 1.578125q-0.875 0 -1.5625 -0.34375q-0.6875 -0.34375 -1.078125 -0.96875q-0.375 -0.625 -0.375 -1.421875q0 -0.84375 0.4375 -1.453125q0.453125 -0.625 1.21875 -0.953125q0.765625 -0.328125 1.71875 -0.328125q0.71875 0 1.296875 0.140625q0.59375 0.140625 0.9375 0.3125l0 -0.4375q0 -0.78125 -0.578125 -1.265625q-0.5625 -0.484375 -1.484375 -0.484375q-0.625 0 -1.1875 0.28125q-0.546875 0.265625 -0.890625 0.75l-1.1875 -0.90625q0.53125 -0.75 1.40625 -1.171875q0.875 -0.421875 1.90625 -0.421875q1.765625 0 2.734375 0.875q0.96875 0.875 0.96875 2.4375l0 5.109375l-1.6875 0l0 -1.015625l-0.09375 0q-0.34375 0.546875 -1.0 0.90625q-0.65625 0.359375 -1.5 0.359375zm0.3125 -1.40625q0.640625 0 1.15625 -0.3125q0.53125 -0.3125 0.828125 -0.828125q0.296875 -0.53125 0.296875 -1.140625q-0.375 -0.21875 -0.875 -0.34375q-0.5 -0.140625 -1.046875 -0.140625q-1.0 0 -1.484375 0.40625q-0.46875 0.390625 -0.46875 1.046875q0 0.578125 0.4375 0.953125q0.4375 0.359375 1.15625 0.359375zm9.060394 1.28125q-0.546875 0 -1.03125 -0.15625q-0.46875 -0.171875 -0.765625 -0.484375q-0.6875 -0.65625 -0.6875 -1.859375l0 -4.28125l-1.421875 0l0 -1.5l1.421875 0l0 -2.3125l1.71875 0l0 2.3125l2.0 0l0 1.5l-2.0 0l0 3.921875q0 0.671875 0.265625 0.9375q0.265625 0.3125 0.828125 0.3125q0.28125 0 0.484375 -0.0625q0.21875 -0.078125 0.46875 -0.25l0 1.6875q-0.53125 0.234375 -1.28125 0.234375zm3.9926453 -9.484375q-0.484375 0 -0.828125 -0.34375q-0.34375 -0.34375 -0.34375 -0.828125q0 -0.484375 0.34375 -0.8125q0.34375 -0.34375 0.828125 -0.34375q0.484375 0 0.828125 0.34375q0.34375 0.328125 0.34375 0.8125q0 0.484375 -0.34375 0.828125q-0.34375 0.34375 -0.828125 0.34375zm-0.859375 1.203125l1.71875 0l0 8.15625l-1.71875 0l0 -8.15625zm7.623146 8.40625q-1.234375 0 -2.21875 -0.5625q-0.96875 -0.5625 -1.515625 -1.546875q-0.53125 -1.0 -0.53125 -2.21875q0 -1.21875 0.53125 -2.203125q0.546875 -1.0 1.515625 -1.5625q0.984375 -0.578125 2.21875 -0.578125q1.21875 0 2.1875 0.578125q0.984375 0.578125 1.53125 1.578125q0.546875 0.984375 0.546875 2.1875q0 1.21875 -0.546875 2.21875q-0.546875 0.984375 -1.515625 1.546875q-0.96875 0.5625 -2.203125 0.5625zm0 -1.578125q0.6875 0 1.265625 -0.328125q0.578125 -0.34375 0.921875 -0.96875q0.359375 -0.625 0.359375 -1.453125q0 -0.828125 -0.359375 -1.453125q-0.34375 -0.625 -0.921875 -0.953125q-0.578125 -0.34375 -1.265625 -0.34375q-0.6875 0 -1.28125 0.34375q-0.578125 0.328125 -0.9375 0.953125q-0.34375 0.625 -0.34375 1.453125q0 0.828125 0.34375 1.453125q0.359375 0.625 0.9375 0.96875q0.59375 0.328125 1.28125 0.328125zm5.6918793 -6.828125l1.625 0l0 1.109375l0.09375 0q0.359375 -0.59375 1.0625 -0.984375q0.703125 -0.390625 1.515625 -0.390625q1.46875 0 2.234375 0.875q0.765625 0.875 0.765625 2.390625l0 5.15625l-1.703125 0l0 -4.921875q0 -0.96875 -0.484375 -1.4375q-0.484375 -0.46875 -1.3125 -0.46875q-0.609375 0 -1.078125 0.34375q-0.46875 0.328125 -0.734375 0.890625q-0.265625 0.546875 -0.265625 1.203125l0 4.390625l-1.71875 0l0 -8.15625z" fill-rule="nonzero"/><path fill="#000000" fill-opacity="0.0" d="m104.34908 204.22572l0 64.157486" fill-rule="evenodd"/><path stroke="#4285f4" stroke-width="2.0" stroke-miterlimit="400.0" stroke-linecap="butt" d="m104.34908 204.22572l0 52.157486" fill-rule="evenodd"/><path fill="#4285f4" stroke="#4285f4" stroke-width="2.0" stroke-linecap="butt" d="m101.045616 256.3832l3.3034668 9.076202l3.3034668 -9.076202z" fill-rule="evenodd"/><path fill="#ffffff" d="m8.629925 186.47585l0 0c0 -2.141449 1.7359772 -3.8774261 3.8774137 -3.8774261l184.8436 0c1.0283508 0 2.0145874 0.40852356 2.741745 1.1356812c0.7271576 0.72714233 1.1356659 1.7133789 1.1356659 2.741745l0 36.276657c0 2.141449 -1.7359772 3.8774261 -3.877411 3.8774261l-184.8436 0c-2.1414366 0 -3.8774137 -1.7359772 -3.8774137 -3.8774261z" fill-rule="evenodd"/><path stroke="#4285f4" stroke-width="4.0" stroke-miterlimit="400.0" stroke-linecap="butt" d="m8.629925 186.47585l0 0c0 -2.141449 1.7359772 -3.8774261 3.8774137 -3.8774261l184.8436 0c1.0283508 0 2.0145874 0.40852356 2.741745 1.1356812c0.7271576 0.72714233 1.1356659 1.7133789 1.1356659 2.741745l0 36.276657c0 2.141449 -1.7359772 3.8774261 -3.877411 3.8774261l-184.8436 0c-2.1414366 0 -3.8774137 -1.7359772 -3.8774137 -3.8774261z" fill-rule="evenodd"/><path fill="#000000" d="m102.75212 210.72417q-1.28125 0 -2.265625 -0.5625q-0.984375 -0.578125 -1.515625 -1.640625q-0.53125 -1.0625 -0.53125 -2.453125l0 -7.046875l1.734375 0l0 7.15625q0 1.28125 0.671875 2.09375q0.671875 0.796875 1.90625 0.796875q1.25 0 1.921875 -0.796875q0.671875 -0.8125 0.671875 -2.09375l0 -7.15625l1.75 0l0 7.046875q0 1.375 -0.53125 2.4375q-0.53125 1.0625 -1.515625 1.640625q-0.96875 0.578125 -2.296875 0.578125zm6.6898956 -11.703125l1.765625 0l0 11.453125l-1.765625 0l0 -11.453125z" fill-rule="nonzero"/><path fill="#ffffff" d="m8.629925 273.37872l0 0c0 -2.1414185 1.7359772 -3.877411 3.8774137 -3.877411l184.8436 0c1.0283508 0 2.0145874 0.4085083 2.741745 1.1356812c0.7271576 0.72714233 1.1356659 1.7133789 1.1356659 2.7417297l0 36.276672c0 2.141449 -1.7359772 3.877411 -3.877411 3.877411l-184.8436 0c-2.1414366 0 -3.8774137 -1.7359619 -3.8774137 -3.877411z" fill-rule="evenodd"/><path stroke="#4285f4" stroke-width="4.0" stroke-miterlimit="400.0" stroke-linecap="butt" d="m8.629925 273.37872l0 0c0 -2.1414185 1.7359772 -3.877411 3.8774137 -3.877411l184.8436 0c1.0283508 0 2.0145874 0.4085083 2.741745 1.1356812c0.7271576 0.72714233 1.1356659 1.7133789 1.1356659 2.7417297l0 36.276672c0 2.141449 -1.7359772 3.877411 -3.877411 3.877411l-184.8436 0c-2.1414366 0 -3.8774137 -1.7359619 -3.8774137 -3.877411z" fill-rule="evenodd"/><path fill="#000000" d="m75.42595 285.92395l4.015625 0q1.046875 0 1.875 0.453125q0.84375 0.4375 1.328125 1.25q0.5 0.796875 0.5 1.796875q0 1.15625 -0.75 2.046875q-0.75 0.875 -1.859375 1.1875l-0.015625 0.078125l3.140625 4.546875l0 0.09375l-2.03125 0l-3.046875 -4.5l-1.390625 0l0 4.5l-1.765625 0l0 -11.453125zm3.96875 5.34375q0.828125 0 1.390625 -0.53125q0.578125 -0.53125 0.578125 -1.328125q0 -0.734375 -0.53125 -1.28125q-0.515625 -0.5625 -1.375 -0.5625l-2.265625 0l0 3.703125l2.203125 0zm8.303146 6.359375q-1.46875 0 -2.25 -0.875q-0.78125 -0.890625 -0.78125 -2.484375l0 -5.046875l1.734375 0l0 4.8125q0 0.984375 0.453125 1.5q0.46875 0.515625 1.265625 0.515625q0.640625 0 1.125 -0.328125q0.5 -0.34375 0.765625 -0.90625q0.265625 -0.5625 0.265625 -1.21875l0 -4.375l1.703125 0l0 8.15625l-1.609375 0l0 -1.109375l-0.09375 0q-0.359375 0.59375 -1.0625 0.984375q-0.703125 0.375 -1.515625 0.375zm6.326889 -8.40625l1.625 0l0 1.109375l0.09375 0q0.359375 -0.59375 1.0625 -0.984375q0.703125 -0.390625 1.515625 -0.390625q1.46875 0 2.234375 0.875q0.765625 0.875 0.765625 2.390625l0 5.15625l-1.703125 0l0 -4.921875q0 -0.96875 -0.484375 -1.4375q-0.484375 -0.46875 -1.3125 -0.46875q-0.609375 0 -1.078125 0.34375q-0.46875 0.328125 -0.734375 0.890625q-0.265625 0.546875 -0.265625 1.203125l0 4.390625l-1.71875 0l0 -8.15625zm12.22377 8.28125q-0.546875 0 -1.03125 -0.15625q-0.46875 -0.171875 -0.765625 -0.484375q-0.6875 -0.65625 -0.6875 -1.859375l0 -4.28125l-1.421875 0l0 -1.5l1.421875 0l0 -2.3125l1.71875 0l0 2.3125l2.0 0l0 1.5l-2.0 0l0 3.921875q0 0.671875 0.265625 0.9375q0.265625 0.3125 0.828125 0.3125q0.28125 0 0.484375 -0.0625q0.21875 -0.078125 0.46875 -0.25l0 1.6875q-0.53125 0.234375 -1.28125 0.234375zm3.9926453 -9.484375q-0.484375 0 -0.828125 -0.34375q-0.34375 -0.34375 -0.34375 -0.828125q0 -0.484375 0.34375 -0.8125q0.34375 -0.34375 0.828125 -0.34375q0.484375 0 0.828125 0.34375q0.34375 0.328125 0.34375 0.8125q0 0.484375 -0.34375 0.828125q-0.34375 0.34375 -0.828125 0.34375zm-0.859375 1.203125l1.71875 0l0 8.15625l-1.71875 0l0 -8.15625zm3.8750153 0l1.625 0l0 1.109375l0.09375 0q0.375 -0.59375 1.046875 -0.984375q0.671875 -0.390625 1.46875 -0.390625q0.875 0 1.515625 0.421875q0.65625 0.421875 0.953125 1.109375q0.421875 -0.6875 1.109375 -1.109375q0.703125 -0.421875 1.65625 -0.421875q1.40625 0 2.125 0.859375q0.71875 0.859375 0.71875 2.328125l0 5.234375l-1.71875 0l0 -4.9375q0 -1.890625 -1.59375 -1.890625q-0.875 0 -1.4375 0.703125q-0.546875 0.703125 -0.546875 1.75l0 4.375l-1.71875 0l0 -4.9375q0 -1.890625 -1.640625 -1.890625q-0.84375 0 -1.390625 0.71875q-0.546875 0.703125 -0.546875 1.75l0 4.359375l-1.71875 0l0 -8.15625zm18.006775 8.40625q-1.1875 0 -2.140625 -0.546875q-0.953125 -0.5625 -1.484375 -1.546875q-0.53125 -0.984375 -0.53125 -2.21875q0 -1.171875 0.515625 -2.171875q0.515625 -1.0 1.4375 -1.59375q0.9375 -0.59375 2.109375 -0.59375q1.234375 0 2.125 0.546875q0.890625 0.53125 1.359375 1.484375q0.484375 0.9375 0.484375 2.140625q0 0.3125 -0.03125 0.53125l-6.3125 0q0.125 1.171875 0.84375 1.8125q0.71875 0.625 1.671875 0.625q0.78125 0 1.34375 -0.359375q0.5625 -0.359375 0.90625 -0.953125l1.421875 0.6875q-0.5625 1.015625 -1.5 1.59375q-0.921875 0.5625 -2.21875 0.5625zm2.15625 -5.265625q-0.03125 -0.4375 -0.28125 -0.890625q-0.25 -0.453125 -0.75 -0.734375q-0.484375 -0.296875 -1.203125 -0.296875q-0.859375 0 -1.46875 0.53125q-0.59375 0.515625 -0.8125 1.390625l4.515625 0z" fill-rule="nonzero"/></g></svg>